<svg width="143" height="143" viewBox="0 0 143 143" fill="none" xmlns="http://www.w3.org/2000/svg">
<g clip-path="url(#clip0_109_53)">
<path d="M100.225 32.0434C75.7326 24.9889 57.4629 61.1911 38.8361 55.2648C34.873 54.0037 31.9991 50.5545 33.4004 46.7039C33.4255 46.6338 33.4526 46.5644 33.4797 46.495C34.6125 43.5635 36.7941 41.2748 39.2507 39.3512C39.4742 39.2269 39.5965 38.844 39.2685 38.8123C39.1006 38.7951 38.9432 38.8929 38.8096 38.9974C38.1021 39.5423 37.4375 40.105 36.8602 40.6652C27.4806 48.7777 28.0599 64.5293 42.0221 66.5594C64.3104 68.8732 78.1026 39.2527 96.1111 38.1754C98.1393 38.1536 100.806 38.6529 101.866 40.5613C102.967 42.364 101.788 44.9429 100.213 46.3402C99.5657 46.985 98.8197 47.5814 98.0222 48.1382C97.8913 48.2295 97.7571 48.3148 97.6195 48.3955C87.7387 54.1922 77.0915 58.6922 66.9297 63.9897C55.9876 69.8863 40.7306 75.5508 33.2066 86.6866C27.0621 96.6984 33.5452 107.851 45.3106 108.119C53.1428 108.281 60.4743 104.314 65.8783 98.9804C73.8691 91.0081 79.1706 80.8423 85.0255 71.2326C88.7492 65.4101 92.9033 56.9497 99.6272 54.8588C100.036 54.7318 100.456 54.6432 100.884 54.6035C108.784 53.8655 108.843 64.1676 108.779 70.2467C108.741 79.4701 108.792 90.7489 101.981 97.2353C97.2003 101.787 86.4889 101.198 84.4026 94.0242C83.6917 91.7408 83.7731 89.2325 84.4112 87.4597C84.6215 86.9664 84.2214 86.4644 83.9556 87.1178C82.3738 90.6543 81.4937 94.8686 82.2343 98.7278C83.9133 107.943 94.663 111.573 101.842 106.26C101.974 106.163 102.1 106.059 102.223 105.95C112.198 97.0548 108.861 80.1737 109.209 67.7894C109.185 61.5165 108.003 52.8802 99.8361 53.568C95.8195 53.9541 91.5867 56.8433 88.2836 59.3554C74.8359 68.9373 62.2393 96.3532 45.6981 95.4657C42.1557 95.2759 36.7107 92.2843 35.898 89.1096C35.8703 88.9998 35.8273 88.6764 35.8134 88.5633C35.3029 84.4396 39.2216 81.0684 42.2912 78.5265C47.7249 74.1984 54.745 70.7625 60.592 67.6624C73.2991 61.0589 86.4473 55.28 98.9778 48.3492C99.1008 48.2817 99.2218 48.2096 99.3402 48.1336C101.604 46.6781 103.683 44.9138 104.864 42.4684C106.869 38.4671 104.524 33.8785 100.246 32.0514L100.225 32.0421L100.225 32.0434Z" fill="#181818"/>
<path d="M88.9833 78.6488C86.727 81.2741 84.523 85.1908 83.3003 88.7373C83.1845 89.0725 83.7989 88.7703 83.9675 88.4589C83.9715 88.4523 83.9748 88.445 83.9787 88.4384C84.1784 88.0971 84.2512 87.9054 84.4112 87.461C85.8786 83.3908 88.6222 82.1959 92.0503 80.0269C92.2546 79.898 92.2116 79.5839 91.9782 79.5052C91.1099 79.2122 89.6531 78.795 89.1975 78.629C89.1228 78.6059 89.0593 78.6006 88.9919 78.6416L88.9819 78.6475L88.9833 78.6488Z" fill="#181818"/>
<path d="M46.1207 33.8315C42.5782 35.66 38.4466 38.8354 35.4755 42.0062C35.1944 42.3058 35.9549 42.2317 36.2769 41.9771C36.2842 41.9712 36.2915 41.9666 36.2981 41.9599C36.8079 41.507 36.8536 41.4521 37.2543 41.0791C40.9244 37.663 44.0066 37.3343 48.488 36.4251C48.7552 36.3708 48.8676 36.0323 48.6752 35.8623C47.9577 35.2282 46.7165 34.2395 46.3455 33.895C46.2827 33.8428 46.2219 33.8124 46.1346 33.8296L46.122 33.8315L46.1207 33.8315Z" fill="#181818"/>
</g>
<defs>
<clipPath id="clip0_109_53">
<rect width="101" height="101" fill="white" transform="translate(0 71.4178) rotate(-45)"/>
</clipPath>
</defs>
</svg>
