<?xml version="1.0" encoding="UTF-8"?>
<svg id="Layer_1" xmlns="http://www.w3.org/2000/svg" version="1.1" viewBox="0 0 1080 192.16">
  <defs>
    <style>
      .st0 {
        fill: #3f3229;
      }
    </style>
  </defs>
  <path class="st0" d="M27.72,15.68c0-.99.8-1.79,1.79-1.79h45c43.57,0,68.34,14.22,68.34,39.68,0,16.45-10.61,28.22-29.44,33.09-1.76.45-1.76,2.93-.02,3.44,24.74,7.12,38.41,21.65,38.41,41.67,0,26.6-23.85,42.66-63.3,42.66H29.5c-.99,0-1.79-.8-1.79-1.79V15.68h.01ZM117.62,55.4c0-21.33-15.14-30.73-50-30.73h-13.81c-.99,0-1.79.8-1.79,1.79v42.71c0,12.38,5.73,16.05,24.31,16.05,28.21,0,41.28-9.4,41.28-29.81h.01ZM125.42,132c0-25.23-18.35-36.92-57.79-36.92h-13.81c-.99,0-1.79.8-1.79,1.79v44.31c0,18.58,5.96,23.62,27.98,23.62,30.96,0,45.41-10.32,45.41-32.8Z"/>
  <path class="st0" d="M244.41,107.04l-54.31-90.44c-.71-1.19.14-2.71,1.53-2.71h23.79c.64,0,1.23.34,1.55.89l45.27,78.3c.72,1.24,2.53,1.17,3.15-.11l37.95-78.07c.3-.62.92-1.01,1.61-1.01h17.97c1.39,0,2.25,1.52,1.53,2.71l-54.31,90.44c-.17.28-.25.6-.25.92v64.68c0,.99-.8,1.79-1.79,1.79h-21.65c-.99,0-1.79-.8-1.79-1.79v-64.68c0-.32-.09-.64-.25-.92h0Z"/>
  <path class="st0" d="M371.56,165.75l-4.97-29.81c-.31-1.88,2.17-2.89,3.23-1.31,13.76,20.63,32.64,31.76,53.71,31.76s33.25-10.78,33.25-27.75c0-13.99-8.71-24.54-27.52-31.65l-15.82-5.96c-30.5-11.47-44.26-27.98-44.26-49.08,0-25,20.41-41.51,51.37-41.51,15.51,0,33.01,4.63,45.79,11.94.49.28.81.77.88,1.32l3.37,25.12c.25,1.86-2.15,2.78-3.23,1.25-12.25-17.33-31.44-28.16-51.17-28.16-17.43,0-27.75,8.72-27.75,23.39,0,13.53,8.26,22.93,30.04,31.19l15.82,5.96c30.04,11.24,42.89,26.83,42.89,48.39,0,28.67-22.47,47.01-57.79,47.01-16.18,0-34.33-4.18-46.92-10.82-.5-.26-.83-.74-.92-1.3v.02h0Z"/>
  <path class="st0" d="M593.7,11.6h5.95c.7,0,1.34.41,1.63,1.05l71.78,159.26c.53,1.18-.33,2.52-1.63,2.52h-24.48c-.72,0-1.37-.44-1.65-1.1l-16.51-39.95c-3.21-7.8-5.27-9.17-16.05-9.17h-50.79c-.76,0-1.43.48-1.69,1.19l-16.82,47.84c-.25.72-.93,1.19-1.69,1.19h-19.82c-1.3,0-2.16-1.34-1.63-2.52L592.08,12.65c.29-.64.93-1.05,1.63-1.05,0,0-.01,0-.01,0ZM578.33,114.11h39.5c1.28,0,2.14-1.31,1.64-2.48l-27.26-64.3c-.63-1.48-2.74-1.44-3.31.06l-14.7,38.51c-4.59,11.7-6.42,17.43-6.42,21.79,0,4.59,3.21,6.42,10.55,6.42Z"/>
  <path class="st0" d="M726.93,15.68c0-.99.8-1.79,1.79-1.79h49.36c42.43,0,68.8,16.05,68.8,42.2,0,17.47-11.69,29.72-31.73,34.52-1.72.41-1.85,2.85-.18,3.41,12.27,4.13,19.56,12.95,23.19,27.66l5.96,24.08c3.71,15.2,6.07,20.81,12.28,25.43,1.39,1.03.7,3.24-1.04,3.24h-14.69c-13.99,0-19.26-4.36-21.56-17.66l-5.5-31.88c-2.98-17.89-13.3-26.6-32.11-26.6h-28.03c-.99,0-1.79.8-1.79,1.79v72.57c0,.99-.8,1.79-1.79,1.79h-21.2c-.99,0-1.79-.8-1.79-1.79V15.69h.03,0ZM821.64,57.01c0-22.7-14.91-32.34-52.06-32.34h-16.1c-.99,0-1.79.8-1.79,1.79v43.62c0,13.76,6.65,18.12,26.6,18.12,30.73,0,43.34-10.32,43.34-31.19h0Z"/>
  <path class="st0" d="M972.77,11.6h5.95c.7,0,1.34.41,1.63,1.05l71.78,159.26c.53,1.18-.33,2.52-1.63,2.52h-24.48c-.72,0-1.37-.44-1.65-1.1l-16.52-39.95c-3.21-7.8-5.27-9.17-16.05-9.17h-50.79c-.76,0-1.43.48-1.69,1.19l-16.82,47.84c-.25.72-.93,1.19-1.69,1.19h-19.82c-1.3,0-2.16-1.34-1.63-2.52L971.14,12.65c.29-.64.93-1.05,1.63-1.05h0ZM957.4,114.11h39.5c1.28,0,2.14-1.31,1.64-2.48l-27.26-64.3c-.63-1.48-2.74-1.44-3.31.06l-14.7,38.51c-4.59,11.7-6.42,17.43-6.42,21.79,0,4.59,3.21,6.42,10.55,6.42Z"/>
</svg>
